<?xml version="1.0" encoding="utf-8"?>
<!-- Generator: Adobe Illustrator 25.0.0, SVG Export Plug-In . SVG Version: 6.00 Build 0)  -->
<svg version="1.1" id="Layer_1" xmlns="http://www.w3.org/2000/svg" xmlns:xlink="http://www.w3.org/1999/xlink" x="0px" y="0px"
	 viewBox="0 0 250 250" style="enable-background:new 0 0 250 250;" xml:space="preserve">
<style type="text/css">
	.st0{fill:#EB5954;}
	.st1{fill:none;stroke:#EB5954;stroke-width:7;stroke-miterlimit:10;}
	.st2{fill:#FAD5D7;}
	.st3{font-family:'MyriadPro-Regular';}
	.st4{font-size:83.2327px;}
</style>
<g>
	<path class="st0" d="M8.2,202.98c0,22.09,17.91,40,40,40h154c22.09,0,40-17.91,40-40v-156c0-22.09-17.91-40-40-40h-154
		c-22.09,0-40,17.91-40,40V202.98z"/>
	<path class="st1" d="M8.2,202.98c0,22.09,17.91,40,40,40h154c22.09,0,40-17.91,40-40v-156c0-22.09-17.91-40-40-40h-154
		c-22.09,0-40,17.91-40,40V202.98z"/>
</g>
<g>
	<path class="st2" d="M225,152.75c0,13.75-11.25,25-25,25H50c-13.75,0-25-11.25-25-25v-100c0-13.75,11.25-25,25-25h150
		c13.75,0,25,11.25,25,25V152.75z"/>
	<path class="st1" d="M225,152.75c0,13.75-11.25,25-25,25H50c-13.75,0-25-11.25-25-25v-100c0-13.75,11.25-25,25-25h150
		c13.75,0,25,11.25,25,25V152.75z"/>
</g>
<g>
	<path class="st2" d="M127.41,215.08c-1.33,2.41-3.49,2.4-4.8-0.02l-22.44-41.45c-1.31-2.42-0.13-4.39,2.62-4.38l44.82,0.19
		c2.75,0.01,3.91,1.99,2.58,4.4L127.41,215.08z"/>
</g>
<text transform="matrix(0.8372 0 0 1 59.1229 125)" class="st0 st3 st4">blog</text>
</svg>
