<?xml version="1.0" encoding="utf-8"?>
<!-- Generator: Adobe Illustrator 25.0.0, SVG Export Plug-In . SVG Version: 6.00 Build 0)  -->
<svg version="1.1" id="Layer_1" xmlns="http://www.w3.org/2000/svg" xmlns:xlink="http://www.w3.org/1999/xlink" x="0px" y="0px"
	 viewBox="0 0 250 250" style="enable-background:new 0 0 250 250;" xml:space="preserve">
<style type="text/css">
	.st0{fill:#FAD5D7;}
	.st1{fill:none;stroke:#EB5954;stroke-width:7;stroke-miterlimit:10;}
	.st2{fill:#FAD5D7;stroke:#EB5954;stroke-width:7;stroke-miterlimit:10;}
	.st3{fill:#EB5954;stroke:#EB5954;stroke-width:7;stroke-miterlimit:10;}
</style>
<g>
	<path class="st0" d="M9.66,204.18c0,22.09,17.91,40,40,40h154c22.09,0,40-17.91,40-40v-156c0-22.09-17.91-40-40-40h-154
		c-22.09,0-40,17.91-40,40V204.18z"/>
	<path class="st1" d="M9.66,204.18c0,22.09,17.91,40,40,40h154c22.09,0,40-17.91,40-40v-156c0-22.09-17.91-40-40-40h-154
		c-22.09,0-40,17.91-40,40V204.18z"/>
</g>
<circle class="st2" cx="126.1" cy="123.7" r="66.95"/>
<circle class="st3" cx="208.35" cy="44.63" r="10.27"/>
</svg>
