<?xml version="1.0" encoding="utf-8"?>
<!-- Generator: Adobe Illustrator 16.0.0, SVG Export Plug-In . SVG Version: 6.00 Build 0)  -->
<!DOCTYPE svg PUBLIC "-//W3C//DTD SVG 1.1//EN" "http://www.w3.org/Graphics/SVG/1.1/DTD/svg11.dtd">
<svg version="1.1" id="Layer_1" xmlns="http://www.w3.org/2000/svg" xmlns:xlink="http://www.w3.org/1999/xlink" x="0px" y="0px"
	 width="100px" height="100px" viewBox="0 0 100 100" enable-background="new 0 0 100 100" xml:space="preserve">
<g>
	<path fill="#FFFFFF" d="M100,80c0,11-9,20-20,20H20C9,100,0,91,0,80V20C0,9,9,0,20,0h60c11,0,20,9,20,20V80z"/>
	<path fill="none" stroke="#000000" stroke-width="3" stroke-miterlimit="10" d="M100,80c0,11-9,20-20,20H20C9,100,0,91,0,80V20
		C0,9,9,0,20,0h60c11,0,20,9,20,20V80z"/>
</g>
<ellipse stroke="#000000" stroke-miterlimit="10" cx="51.96" cy="40.21" rx="39.241" ry="27.685"/>
<path stroke="#000000" stroke-miterlimit="10" d="M30.386,64.044v-0.708c0,0,1.698,7.276-2.605,10.9s18.687-6.342,18.687-6.342
	l26.161-20.499"/>
<text transform="matrix(1 0 0 1 34.6895 50)" fill="#FFFFFF" font-family="'MyriadPro-Regular'" font-size="30">Ch</text>
</svg>
