<?xml version="1.0" encoding="utf-8"?>
<!-- Generator: Adobe Illustrator 25.0.0, SVG Export Plug-In . SVG Version: 6.00 Build 0)  -->
<svg version="1.1" id="Layer_1" xmlns="http://www.w3.org/2000/svg" xmlns:xlink="http://www.w3.org/1999/xlink" x="0px" y="0px"
	 viewBox="0 0 250 250" style="enable-background:new 0 0 250 250;" xml:space="preserve">
<style type="text/css">
	.st0{fill:#FAD5D7;}
	.st1{fill:none;stroke:#EB5954;stroke-width:7;stroke-miterlimit:10;}
	.st2{fill:#EB5954;stroke:#EB5954;stroke-miterlimit:10;}
	.st3{font-family:'MyriadPro-Regular';}
	.st4{font-size:67px;}
</style>
<g>
	<path class="st0" d="M8.2,202.98c0,22.09,17.91,40,40,40h154c22.09,0,40-17.91,40-40v-156c0-22.09-17.91-40-40-40h-154
		c-22.09,0-40,17.91-40,40V202.98z"/>
	<path class="st1" d="M8.2,202.98c0,22.09,17.91,40,40,40h154c22.09,0,40-17.91,40-40v-156c0-22.09-17.91-40-40-40h-154
		c-22.09,0-40,17.91-40,40V202.98z"/>
</g>
<path class="st2" d="M217.84,110.31c0,38.76-41.47,70.19-92.63,70.19c-19.6,0-37.77-4.61-52.74-12.48
	c-24.11-12.67-39.89-33.79-39.89-57.71c0-38.76,41.47-70.19,92.63-70.19S217.84,71.55,217.84,110.31z"/>
<path class="st2" d="M88.51,174.69c8.29,13.81-20.72,30.91-20.72,30.91s25.38-1.55,43.17-9.84c0,0,14.54-7.41,18.69-11.04
	c4.14-3.63,4.53-4.22,4.53-4.22"/>
<text transform="matrix(1 0 0 1 70.3809 131.3583)" class="st0 st3 st4">Talk</text>
</svg>
