<?xml version="1.0" encoding="utf-8"?>
<!-- Generator: Adobe Illustrator 25.0.0, SVG Export Plug-In . SVG Version: 6.00 Build 0)  -->
<svg version="1.1" id="Layer_1" xmlns="http://www.w3.org/2000/svg" xmlns:xlink="http://www.w3.org/1999/xlink" x="0px" y="0px"
	 viewBox="0 0 200 95" style="enable-background:new 0 0 200 95;" xml:space="preserve">
<style type="text/css">
	.st0{fill:#F7AEA6;}
	.st1{fill:#FF4E2A;}
	.st2{font-family:'ArialRoundedMTBold';}
	.st3{font-size:23px;}
	.st4{fill:#289F00;}
</style>
<g>
	<path class="st0" d="M200,38.45c0,13.75-11.25,25-25,25H25c-13.75,0-25-11.25-25-25V26.36c0-13.75,11.25-25,25-25h150
		c13.75,0,25,11.25,25,25V38.45z"/>
</g>
<g>
	<path class="st0" d="M111.47,86.98c5.62,5.26,9.6,3.3,8.84-4.36l-4.07-41.09c-0.76-7.66-7.02-11.13-13.92-7.7l-18.55,9.23
		c-6.89,3.43-7.94,10.54-2.32,15.81L111.47,86.98z"/>
</g>
<text transform="matrix(0.9955 0 0 1 7.1707 41.2284)"><tspan x="0" y="0" class="st1 st2 st3">X-MAS </tspan><tspan x="78.34" y="0" class="st4 st2 st3">SPECIAL!!</tspan></text>
</svg>
